<svg xmlns="http://www.w3.org/2000/svg" width="1280" height="800" viewBox="0 0 1280 800" role="img" aria-label="D.E.V.I.L Mission Control tablet dashboard screenshot">
  <defs>
    <linearGradient id="bg" x1="0" x2="1" y1="0" y2="1"><stop stop-color="#060711"/><stop offset="0.55" stop-color="#0a1422"/><stop offset="1" stop-color="#0e1022"/></linearGradient>
    <linearGradient id="accent" x1="0" x2="1"><stop stop-color="#52e4ff"/><stop offset="1" stop-color="#78f0b2"/></linearGradient>
    <linearGradient id="glass" x1="0" x2="1" y1="0" y2="1"><stop stop-color="#13243d" stop-opacity="0.86"/><stop offset="1" stop-color="#11162d" stop-opacity="0.62"/></linearGradient>
    <filter id="soft"><feGaussianBlur stdDeviation="32"/></filter>
  </defs>
  <rect width="1280" height="800" fill="url(#bg)"/>
  <circle cx="220" cy="120" r="220" fill="#52e4ff" opacity="0.15" filter="url(#soft)"/>
  <circle cx="1040" cy="130" r="190" fill="#ffc86b" opacity="0.13" filter="url(#soft)"/>
  <circle cx="920" cy="710" r="250" fill="#78f0b2" opacity="0.1" filter="url(#soft)"/>
  <g opacity="0.13" stroke="#eef7ff"><path d="M0 82h1280M0 164h1280M0 246h1280M0 328h1280M0 410h1280M0 492h1280M0 574h1280M0 656h1280M0 738h1280M102 0v800M204 0v800M306 0v800M408 0v800M510 0v800M612 0v800M714 0v800M816 0v800M918 0v800M1020 0v800M1122 0v800M1224 0v800"/></g>
  <rect x="28" y="28" width="86" height="744" rx="30" fill="url(#glass)" stroke="#52e4ff" stroke-opacity="0.22"/>
  <rect x="44" y="44" width="54" height="54" rx="18" fill="url(#accent)"/>
  <text x="62" y="80" fill="#06101c" font-family="Arial" font-size="27" font-weight="900">D</text>
  <g fill="#8fa8bc" font-family="Arial" font-size="10" text-anchor="middle"><text x="71" y="150">HO</text><text x="71" y="216">WE</text><text x="71" y="282">CA</text><text x="71" y="348">PH</text><text x="71" y="414">NO</text><text x="71" y="480">TA</text><text x="71" y="546">MU</text><text x="71" y="612">LI</text></g>
  <rect x="140" y="28" width="1112" height="126" rx="30" fill="url(#glass)" stroke="#52e4ff" stroke-opacity="0.2"/>
  <text x="170" y="75" fill="#8fa8bc" font-family="Arial" font-size="13" font-weight="700">DIGITAL ENVIRONMENT VISUALIZATION &amp; INTELLIGENT LAUNCHER</text>
  <text x="170" y="125" fill="#eef7ff" font-family="Arial" font-size="54" font-weight="900">D.E.V.I.L Mission Control</text>
  <rect x="1010" y="68" width="190" height="42" rx="14" fill="url(#accent)"/>
  <text x="1040" y="95" fill="#06101c" font-family="Arial" font-size="15" font-weight="800">Command Mode</text>
  <g>
    <rect x="140" y="174" width="260" height="144" rx="26" fill="url(#glass)" stroke="#52e4ff" stroke-opacity="0.22"/>
    <rect x="424" y="174" width="260" height="144" rx="26" fill="url(#glass)" stroke="#78f0b2" stroke-opacity="0.22"/>
    <rect x="708" y="174" width="260" height="144" rx="26" fill="url(#glass)" stroke="#ffc86b" stroke-opacity="0.22"/>
    <rect x="992" y="174" width="260" height="144" rx="26" fill="url(#glass)" stroke="#bfa2ff" stroke-opacity="0.22"/>
    <circle cx="210" cy="246" r="46" fill="none" stroke="#1e3146" stroke-width="14"/><circle cx="210" cy="246" r="46" fill="none" stroke="#52e4ff" stroke-width="14" stroke-dasharray="265 300" transform="rotate(-90 210 246)"/>
    <circle cx="494" cy="246" r="46" fill="none" stroke="#1e3146" stroke-width="14"/><circle cx="494" cy="246" r="46" fill="none" stroke="#78f0b2" stroke-width="14" stroke-dasharray="224 300" transform="rotate(-90 494 246)"/>
    <circle cx="778" cy="246" r="46" fill="none" stroke="#1e3146" stroke-width="14"/><circle cx="778" cy="246" r="46" fill="none" stroke="#ffc86b" stroke-width="14" stroke-dasharray="190 300" transform="rotate(-90 778 246)"/>
    <circle cx="1062" cy="246" r="46" fill="none" stroke="#1e3146" stroke-width="14"/><circle cx="1062" cy="246" r="46" fill="none" stroke="#bfa2ff" stroke-width="14" stroke-dasharray="254 300" transform="rotate(-90 1062 246)"/>
    <text x="185" y="253" fill="#eef7ff" font-family="Arial" font-size="22" font-weight="900">92%</text><text x="468" y="253" fill="#eef7ff" font-family="Arial" font-size="22" font-weight="900">76%</text><text x="752" y="253" fill="#eef7ff" font-family="Arial" font-size="22" font-weight="900">64%</text><text x="1036" y="253" fill="#eef7ff" font-family="Arial" font-size="22" font-weight="900">88%</text>
    <text x="276" y="238" fill="#eef7ff" font-family="Arial" font-size="21" font-weight="800">Core Sync</text><text x="560" y="238" fill="#eef7ff" font-family="Arial" font-size="21" font-weight="800">Energy</text><text x="844" y="238" fill="#eef7ff" font-family="Arial" font-size="21" font-weight="800">Focus</text><text x="1128" y="238" fill="#eef7ff" font-family="Arial" font-size="21" font-weight="800">Signal</text>
  </g>
  <rect x="140" y="340" width="350" height="206" rx="26" fill="url(#glass)" stroke="#52e4ff" stroke-opacity="0.22"/>
  <text x="168" y="382" fill="#eef7ff" font-family="Arial" font-size="28" font-weight="800">Weather</text><circle cx="235" cy="452" r="50" fill="#52e4ff" opacity="0.78"/><circle cx="216" cy="430" r="18" fill="#fff8d9"/><text x="316" y="462" fill="#eef7ff" font-family="Arial" font-size="54" font-weight="900">28 C</text>
  <rect x="512" y="340" width="350" height="206" rx="26" fill="url(#glass)" stroke="#52e4ff" stroke-opacity="0.22"/>
  <text x="540" y="382" fill="#eef7ff" font-family="Arial" font-size="28" font-weight="800">Calendar</text><g font-family="Arial" text-anchor="middle"><rect x="540" y="415" width="42" height="64" rx="16" fill="#ffffff" opacity="0.08"/><rect x="588" y="415" width="42" height="64" rx="16" fill="#ffffff" opacity="0.08"/><rect x="636" y="415" width="42" height="64" rx="16" fill="#ffffff" opacity="0.08"/><rect x="684" y="415" width="42" height="64" rx="16" fill="#ffffff" opacity="0.08"/><rect x="732" y="415" width="42" height="64" rx="16" fill="url(#accent)"/><text x="753" y="454" fill="#06101c" font-size="20" font-weight="900">26</text></g>
  <rect x="884" y="340" width="368" height="432" rx="26" fill="url(#glass)" stroke="#52e4ff" stroke-opacity="0.22"/>
  <text x="912" y="382" fill="#eef7ff" font-family="Arial" font-size="28" font-weight="800">Photography Hub</text><rect x="912" y="412" width="312" height="95" rx="22" fill="#52e4ff" opacity="0.18"/><rect x="912" y="526" width="312" height="95" rx="22" fill="#ffc86b" opacity="0.16"/><rect x="912" y="640" width="312" height="95" rx="22" fill="#78f0b2" opacity="0.14"/>
  <rect x="140" y="568" width="350" height="204" rx="26" fill="url(#glass)" stroke="#52e4ff" stroke-opacity="0.22"/>
  <text x="168" y="610" fill="#eef7ff" font-family="Arial" font-size="28" font-weight="800">Notes</text><text x="168" y="652" fill="#8fa8bc" font-family="Arial" font-size="18">Review telemetry. Ship dashboard.</text><text x="168" y="682" fill="#8fa8bc" font-family="Arial" font-size="18">Verify Pages deployment.</text>
  <rect x="512" y="568" width="350" height="204" rx="26" fill="url(#glass)" stroke="#52e4ff" stroke-opacity="0.22"/>
  <text x="540" y="610" fill="#eef7ff" font-family="Arial" font-size="28" font-weight="800">To-Do List</text><g stroke="#52e4ff" fill="none"><rect x="542" y="636" width="18" height="18" rx="4"/><rect x="542" y="672" width="18" height="18" rx="4"/><rect x="542" y="708" width="18" height="18" rx="4"/></g><g fill="#8fa8bc" font-family="Arial" font-size="17"><text x="578" y="652">Publish Pages deployment</text><text x="578" y="688">Review photo queue</text><text x="578" y="724">Archive notes</text></g>
</svg>
